<?xml version="1.0" encoding="utf-8"?>
<svg viewBox="0 0 588 84.02999877929688" xmlns="http://www.w3.org/2000/svg">
  <defs>
    <style type="text/css">
	.st0{fill:#FFFFFF;}
</style>
  </defs>
  <path d="M 134.387 84.032 L 0 84.032 L 0 0 L 16.806 0 L 16.806 67.54 L 134.419 67.54 L 134.419 84.032 Z M 285.612 84.032 L 268.806 84.032 L 268.806 50.262 L 168 50.262 L 168 84.032 L 151.194 84.032 L 151.194 33.77 L 285.612 33.77 L 285.612 84.032 Z M 285.612 16.491 L 151.194 16.491 L 151.194 0 L 285.612 0 L 285.612 16.491 Z M 436.807 33.77 L 420 33.77 L 420 50.231 L 436.807 50.231 L 436.807 84.032 L 302.387 84.032 L 302.387 67.571 L 420 67.571 L 420 50.262 L 302.387 50.262 L 302.387 33.802 L 420 33.802 L 420 16.491 L 302.387 16.491 L 302.387 0 L 436.807 0 L 436.807 33.77 Z M 588 84.032 L 453.581 84.032 L 453.581 67.571 L 571.194 67.571 L 571.194 50.262 L 453.581 50.262 L 453.581 33.802 L 588 33.802 L 588 84.032 Z M 588 16.491 L 453.581 16.491 L 453.581 0 L 588 0 L 588 16.491 Z"/>
</svg>